# xmcd
#
# Track frame offsets:
# 150
# 16055
# 28805
# 42302
# 56525
# 70047
# 85650
# 94347
# 108897
#
# Disc length: 1808 seconds
#
#
# Revision: 0
# Processed by: cddbd v1.5.1PL2 Copyright (c) Steve Scherf et al.
# Submitted via: FreeRIP 2.945 
#
DISCID=67070e09
DTITLE=Stu Phillips - Blue Canadians Rockies
DYEAR=1996
DGENRE=Country
TTITLE0=Blue Canadian Rockies
TTITLE1=Heart Over Mind
TTITLE2=A Castle A Cabin
TTITLE3=The Great El Tigre
TTITLE4=Dust In My Eyes
TTITLE5=Colorado
TTITLE6=That's The Chance I'll Have To Take
TTITLE7=Rangeland
TTITLE8=Medley
EXTD=Watermark Records\nW336D
EXTT0=
EXTT1=
EXTT2=
EXTT3=
EXTT4=
EXTT5=
EXTT6=
EXTT7=
EXTT8=
PLAYORDER=
